<svg width="27" height="27" viewBox="0 0 27 27" fill="none" xmlns="http://www.w3.org/2000/svg">
<path d="M7.78442 19.8615L15.5667 16.0511C15.6743 16.008 15.7658 15.9488 15.8412 15.8735C15.9165 15.7981 15.9757 15.7066 16.0188 15.599L19.8292 7.81671C19.9368 7.60143 19.9099 7.41306 19.7485 7.2516C19.587 7.09015 19.3987 7.06324 19.1834 7.17087L11.4011 10.9813C11.2934 11.0243 11.202 11.0835 11.1266 11.1589C11.0513 11.2342 10.9921 11.3257 10.949 11.4334L7.13858 19.2157C7.03094 19.4309 7.05785 19.6193 7.21931 19.7808C7.38077 19.9422 7.56914 19.9691 7.78442 19.8615ZM13.5 14.7917C13.1341 14.7917 12.8273 14.6679 12.5797 14.4204C12.3322 14.1728 12.2084 13.866 12.2084 13.5C12.2084 13.1341 12.3322 12.8273 12.5797 12.5797C12.8273 12.3322 13.1341 12.2084 13.5 12.2084C13.866 12.2084 14.1728 12.3322 14.4204 12.5797C14.6679 12.8273 14.7917 13.1341 14.7917 13.5C14.7917 13.866 14.6679 14.1728 14.4204 14.4204C14.1728 14.6679 13.866 14.7917 13.5 14.7917ZM13.5 26.4167C11.7348 26.4167 10.0664 26.0776 8.49483 25.3995C6.92331 24.7214 5.55091 23.7957 4.37765 22.6224C3.20438 21.4492 2.27869 20.0768 1.60056 18.5053C0.922436 16.9337 0.583374 15.2653 0.583374 13.5C0.583374 11.7348 0.922436 10.0664 1.60056 8.49483C2.27869 6.92331 3.20438 5.55091 4.37765 4.37765C5.55091 3.20438 6.92331 2.27869 8.49483 1.60056C10.0664 0.922436 11.7348 0.583374 13.5 0.583374C15.2653 0.583374 16.9337 0.922436 18.5053 1.60056C20.0768 2.27869 21.4492 3.20438 22.6224 4.37765C23.7957 5.55091 24.7214 6.92331 25.3995 8.49483C26.0776 10.0664 26.4167 11.7348 26.4167 13.5C26.4167 15.2653 26.0776 16.9337 25.3995 18.5053C24.7214 20.0768 23.7957 21.4492 22.6224 22.6224C21.4492 23.7957 20.0768 24.7214 18.5053 25.3995C16.9337 26.0776 15.2653 26.4167 13.5 26.4167ZM13.5 24.4792C16.5139 24.4792 19.0973 23.4028 21.25 21.25C23.4028 19.0973 24.4792 16.5139 24.4792 13.5C24.4792 10.4862 23.4028 7.90282 21.25 5.75004C19.0973 3.59726 16.5139 2.52087 13.5 2.52087C10.4862 2.52087 7.90282 3.59726 5.75004 5.75004C3.59726 7.90282 2.52087 10.4862 2.52087 13.5C2.52087 16.5139 3.59726 19.0973 5.75004 21.25C7.90282 23.4028 10.4862 24.4792 13.5 24.4792Z" fill="white"/>
</svg>
