<svg width="21" height="27" viewBox="0 0 21 27" fill="none" xmlns="http://www.w3.org/2000/svg">
<path d="M10.5 13.1771C11.1243 13.1771 11.6571 12.9565 12.0984 12.5151C12.5397 12.0738 12.7604 11.541 12.7604 10.9167C12.7604 10.2924 12.5397 9.75959 12.0984 9.31827C11.6571 8.87695 11.1243 8.65629 10.5 8.65629C9.87565 8.65629 9.34284 8.87695 8.90152 9.31827C8.4602 9.75959 8.23954 10.2924 8.23954 10.9167C8.23954 11.541 8.4602 12.0738 8.90152 12.5151C9.34284 12.9565 9.87565 13.1771 10.5 13.1771ZM10.5 23.8657C13.3632 21.2608 15.4783 18.8981 16.8453 16.7776C18.2123 14.6572 18.8958 12.7896 18.8958 11.175C18.8958 8.63476 18.0831 6.55733 16.4578 4.94275C14.8324 3.32817 12.8465 2.52087 10.5 2.52087C8.15343 2.52087 6.16749 3.32817 4.54215 4.94275C2.9168 6.55733 2.10413 8.63476 2.10413 11.175C2.10413 12.7896 2.80378 14.6572 4.20308 16.7776C5.60239 18.8981 7.70135 21.2608 10.5 23.8657ZM10.5 26.4167C7.03399 23.4674 4.44527 20.728 2.73381 18.1985C1.02236 15.669 0.166626 13.3278 0.166626 11.175C0.166626 7.94587 1.20534 5.3733 3.28277 3.45733C5.3602 1.54136 7.76593 0.583374 10.5 0.583374C13.234 0.583374 15.6397 1.54136 17.7171 3.45733C19.7946 5.3733 20.8333 7.94587 20.8333 11.175C20.8333 13.3278 19.9776 15.669 18.2661 18.1985C16.5546 20.728 13.9659 23.4674 10.5 26.4167Z" fill="white"/>
</svg>
