<svg width="28" height="27" viewBox="0 0 28 27" fill="none" xmlns="http://www.w3.org/2000/svg">
<g clip-path="url(#clip0_152_287)">
<path d="M27.1504 18.7695L25.2383 10.4062C25.2344 10.3889 25.2293 10.3722 25.2235 10.3559C25.078 9.82686 24.377 9.42715 23.0109 9.09082C22.751 7.72567 21.5493 6.69014 20.1096 6.69014C20.0177 6.69014 19.9257 6.69455 19.8337 6.70319C19.3317 5.73421 18.3198 5.1057 17.2092 5.1057C16.8703 5.1057 16.5335 5.1644 16.2162 5.27741C15.7425 4.5411 14.9252 4.08521 14.0269 4.08521C13.1286 4.08521 12.3114 4.54104 11.8376 5.27741C11.5203 5.1644 11.1835 5.1057 10.8446 5.1057C9.73396 5.1057 8.72207 5.73426 8.22009 6.70319C8.12814 6.69449 8.03608 6.69014 7.94424 6.69014C6.50454 6.69014 5.30278 7.72567 5.04293 9.09082C3.64491 9.43505 2.94309 9.84544 2.82063 10.393C2.8188 10.3997 2.81654 10.4061 2.81504 10.4129L0.90334 18.7694C0.895713 18.8028 0.891846 18.8369 0.891846 18.8712C0.891846 19.7462 2.25812 20.5264 4.95259 21.1903C7.55624 21.8317 10.7789 22.185 14.0268 22.185C17.2749 22.185 20.4975 21.8317 23.1011 21.1903C25.7956 20.5264 27.1618 19.7462 27.1618 18.8713C27.1618 18.837 27.158 18.8029 27.1504 18.7695ZM23.0362 10.0406C23.9051 10.2764 24.2088 10.4837 24.3065 10.5732C24.1942 10.6763 23.8092 10.9357 22.6121 11.2128C22.8337 10.8593 22.9794 10.4604 23.0362 10.0406ZM7.94419 7.60316C8.09452 7.60316 8.24636 7.62024 8.39551 7.65386C8.61991 7.70456 8.84684 7.58033 8.9252 7.36409C9.21695 6.55936 9.98823 6.01866 10.8445 6.01866C11.1864 6.01866 11.5247 6.10486 11.8226 6.26798C11.9363 6.33018 12.0711 6.34119 12.1934 6.29817C12.3156 6.25514 12.4139 6.16217 12.4636 6.04245C12.7267 5.40803 13.3404 4.99817 14.0269 4.99817C14.7134 4.99817 15.327 5.40808 15.5902 6.04245C15.6399 6.16217 15.7381 6.25514 15.8603 6.29817C15.9826 6.34119 16.1175 6.33018 16.2311 6.26798C16.529 6.10486 16.8673 6.01866 17.2092 6.01866C18.0655 6.01866 18.8368 6.55936 19.1285 7.36409C19.2069 7.58028 19.4339 7.70467 19.6582 7.65386C19.8074 7.62024 19.9592 7.60316 20.1096 7.60316C21.2349 7.60316 22.12 8.51918 22.1505 9.64414C22.1717 10.4228 21.6162 11.1068 21.0749 11.4983C19.1292 11.7902 16.6351 11.9506 14.0269 11.9506C11.4835 11.9506 9.04863 11.798 7.125 11.5197C6.40636 11.1845 5.90326 10.4373 5.90326 9.64414C5.90321 8.51875 6.8188 7.60316 7.94419 7.60316ZM5.01737 10.0406C5.07451 10.4617 5.22157 10.8607 5.44253 11.2131C4.2448 10.9359 3.85959 10.6764 3.74723 10.5732C3.84493 10.4837 4.1485 10.2765 5.01737 10.0406ZM22.6801 20.3527C20.1799 20.9455 17.1068 21.272 14.0269 21.272C10.947 21.272 7.87388 20.9455 5.37368 20.3527C2.91086 19.7688 1.93586 19.1317 1.81378 18.8842L3.50092 11.5091C3.67397 11.6062 3.8372 11.6719 3.93318 11.7105C4.50578 11.941 5.3139 12.1461 6.33503 12.32C8.39369 12.6706 11.1253 12.8637 14.0269 12.8637C16.9285 12.8637 19.6601 12.6706 21.7187 12.32C22.7398 12.1461 23.548 11.941 24.1206 11.7105C24.2167 11.6718 24.3803 11.606 24.5537 11.5086L26.24 18.8841C26.118 19.1316 25.143 19.7687 22.6801 20.3527Z" fill="black"/>
<path d="M19.5806 13.2278C18.5198 13.2278 17.6368 14.0039 17.4696 15.0181H10.5842C10.417 14.0039 9.534 13.2278 8.47317 13.2278C7.29348 13.2278 6.33374 14.1875 6.33374 15.3672C6.33374 15.8378 6.48751 16.2884 6.76568 16.6563C6.48751 17.0241 6.33374 17.4747 6.33374 17.9453C6.33374 19.125 7.29348 20.0847 8.47317 20.0847C9.534 20.0847 10.417 19.3086 10.5842 18.2944H17.4696C17.6367 19.3086 18.5198 20.0847 19.5806 20.0847C20.7603 20.0847 21.7201 19.125 21.7201 17.9453C21.7201 17.4747 21.5663 17.0241 21.2881 16.6563C21.5663 16.2884 21.7201 15.8378 21.7201 15.3672C21.7201 14.1875 20.7603 13.2278 19.5806 13.2278ZM20.3685 17.0059C20.6472 17.2399 20.807 17.5823 20.807 17.9454C20.807 18.6216 20.2568 19.1717 19.5806 19.1717C18.9044 19.1717 18.3542 18.6216 18.3542 17.9454C18.3542 17.919 18.3553 17.8928 18.3569 17.8669C18.3649 17.741 18.3205 17.6174 18.2342 17.5256C18.1479 17.4336 18.0274 17.3814 17.9013 17.3814H10.1525C10.0264 17.3814 9.90589 17.4336 9.81957 17.5256C9.73326 17.6175 9.68884 17.741 9.69685 17.8669C9.69851 17.8928 9.69959 17.919 9.69959 17.9454C9.69959 18.6216 9.14943 19.1717 8.47317 19.1717C7.79696 19.1717 7.24681 18.6216 7.24681 17.9454C7.24681 17.5823 7.4066 17.2399 7.68525 17.0059C7.78853 16.9192 7.8482 16.7912 7.8482 16.6563C7.8482 16.5214 7.78858 16.3935 7.68525 16.3067C7.4066 16.0727 7.24681 15.7303 7.24681 15.3673C7.24681 14.6911 7.79696 14.1409 8.47317 14.1409C9.14943 14.1409 9.69959 14.6911 9.69959 15.3673C9.69959 15.3936 9.69851 15.4198 9.69685 15.4457C9.68884 15.5716 9.73326 15.6952 9.81957 15.7871C9.90583 15.879 10.0264 15.9312 10.1525 15.9312H17.9013C18.0274 15.9312 18.1479 15.879 18.2342 15.7871C18.3205 15.6951 18.3649 15.5716 18.3569 15.4457C18.3553 15.4198 18.3542 15.3936 18.3542 15.3673C18.3542 14.6911 18.9044 14.1409 19.5806 14.1409C20.2568 14.1409 20.807 14.6911 20.807 15.3673C20.807 15.7303 20.6472 16.0727 20.3685 16.3067C20.2653 16.3935 20.2056 16.5214 20.2056 16.6563C20.2056 16.7912 20.2653 16.9192 20.3685 17.0059Z" fill="black"/>
</g>
<defs>
<clipPath id="clip0_152_287">
<rect width="26.27" height="26.27" fill="white" transform="translate(0.891846 0.00012207)"/>
</clipPath>
</defs>
</svg>
