<svg width="24" height="24" viewBox="0 0 24 24" fill="none" xmlns="http://www.w3.org/2000/svg">
<g clip-path="url(#clip0_39_198)">
<path d="M12 24C18.6274 24 24 18.6274 24 12C24 5.37258 18.6274 0 12 0C5.37258 0 0 5.37258 0 12C0 18.6274 5.37258 24 12 24Z" fill="#3B5998"/>
<path d="M15.0168 12.4698H12.8756V20.3143H9.63138V12.4698H8.08844V9.7129H9.63138V7.92888C9.63138 6.65311 10.2374 4.6554 12.9044 4.6554L15.3075 4.66545V7.34148H13.5639C13.2779 7.34148 12.8758 7.48437 12.8758 8.09295V9.71547H15.3002L15.0168 12.4698Z" fill="white"/>
</g>
<defs>
<clipPath id="clip0_39_198">
<rect width="24" height="24" fill="white"/>
</clipPath>
</defs>
</svg>
