<svg width="24" height="25" viewBox="0 0 24 25" fill="none" xmlns="http://www.w3.org/2000/svg">
<path d="M2.25 22.8125H7.875V14.2188H16.125V22.8125H21.75V9.40625L12 2.70312L2.25 9.40625V22.8125ZM2.25 24.875C1.625 24.875 1.09375 24.6745 0.65625 24.2734C0.21875 23.8724 0 23.3854 0 22.8125V9.40625C0 9.08542 0.0812499 8.77604 0.24375 8.47812C0.40625 8.18021 0.625 7.93958 0.9 7.75625L10.65 1.05312C10.85 0.915625 11.0625 0.8125 11.2875 0.74375C11.5125 0.675 11.75 0.640625 12 0.640625C12.25 0.640625 12.4875 0.675 12.7125 0.74375C12.9375 0.8125 13.15 0.915625 13.35 1.05312L23.1 7.75625C23.375 7.93958 23.5938 8.18021 23.7562 8.47812C23.9187 8.77604 24 9.08542 24 9.40625V22.8125C24 23.3854 23.7812 23.8724 23.3438 24.2734C22.9062 24.6745 22.375 24.875 21.75 24.875H13.875V16.2812H10.125V24.875H2.25Z" fill="white"/>
<path d="M2.25 22.8125H7.875V14.2188H16.125V22.8125H21.75V9.40625L12 2.70312L2.25 9.40625V22.8125ZM2.25 24.875C1.625 24.875 1.09375 24.6745 0.65625 24.2734C0.21875 23.8724 0 23.3854 0 22.8125V9.40625C0 9.08542 0.0812499 8.77604 0.24375 8.47812C0.40625 8.18021 0.625 7.93958 0.9 7.75625L10.65 1.05312C10.85 0.915625 11.0625 0.8125 11.2875 0.74375C11.5125 0.675 11.75 0.640625 12 0.640625C12.25 0.640625 12.4875 0.675 12.7125 0.74375C12.9375 0.8125 13.15 0.915625 13.35 1.05312L23.1 7.75625C23.375 7.93958 23.5938 8.18021 23.7562 8.47812C23.9187 8.77604 24 9.08542 24 9.40625V22.8125C24 23.3854 23.7812 23.8724 23.3438 24.2734C22.9062 24.6745 22.375 24.875 21.75 24.875H13.875V16.2812H10.125V24.875H2.25Z" stroke="white"/>
</svg>
