<svg width="24" height="26" viewBox="0 0 24 26" fill="none" xmlns="http://www.w3.org/2000/svg">
<path d="M10.9776 25.3948C12.8298 25.3948 14.3792 24.0744 14.735 22.3267H7.22015C7.57614 24.0744 9.12555 25.3948 10.9776 25.3948Z" fill="white"/>
<path d="M18.1488 13.1215C18.1447 13.1215 18.1406 13.1224 18.1364 13.1224C14.1899 13.1224 10.9776 9.91107 10.9776 5.96358C10.9776 4.8784 11.2272 3.85257 11.6618 2.93012C11.4368 2.90877 11.2087 2.89548 10.9776 2.89548C7.02392 2.89548 3.81874 6.10047 3.81874 10.0543V12.9056C3.81874 14.9295 2.93205 16.84 1.37647 18.1551C0.857938 18.598 0.627793 19.3036 0.813931 19.992C1.03078 20.7927 1.82234 21.3041 2.65285 21.3041H19.2973C20.1686 21.3041 20.9899 20.7395 21.1667 19.8856C21.3038 19.2249 21.0686 18.5652 20.5562 18.1347C19.0692 16.8881 18.2091 15.0563 18.1488 13.1215Z" fill="white"/>
<path d="M23.25 5.96357C23.25 8.78767 20.9607 11.077 18.1364 11.077C15.3123 11.077 13.023 8.78767 13.023 5.96357C13.023 3.13947 15.3123 0.850006 18.1364 0.850006C20.9607 0.850006 23.25 3.13947 23.25 5.96357Z" fill="white"/>
</svg>
