<svg width="22" height="25" viewBox="0 0 22 25" fill="none" xmlns="http://www.w3.org/2000/svg">
<path d="M1.46671 24.5833V12.4395L1.00004 12.0166C0.755596 11.7951 0.583374 11.5635 0.483374 11.3218C0.383374 11.0802 0.333374 10.8184 0.333374 10.5364C0.333374 10.2545 0.383374 9.98763 0.483374 9.7359C0.583374 9.48416 0.755596 9.24753 1.00004 9.026L5.26671 5.12913H11.2667L16.4667 0.416626L18.9667 2.68225C19.8334 3.46767 20.4834 4.36888 20.9167 5.3859C21.35 6.40291 21.5778 7.42496 21.6 8.45204C21.5778 9.47913 21.35 10.5012 20.9167 11.5182C20.4834 12.5352 19.8334 13.4364 18.9667 14.2218L16.1334 16.7895V24.5833H1.46671ZM3.46671 22.7708H14.1334V16.0343L17.5334 12.9531C18.2223 12.3288 18.7389 11.629 19.0834 10.8536C19.4278 10.0783 19.6 9.27774 19.6 8.45204C19.6 7.62635 19.4278 6.83086 19.0834 6.06558C18.7389 5.30031 18.2223 4.60551 17.5334 3.98121L16.4667 2.98433L12.1 6.94163H6.10004L5.00004 7.9385L7.46671 10.1739C8.08893 10.7378 8.5556 11.3671 8.86671 12.0619C9.17782 12.7567 9.33337 13.4767 9.33337 14.2218C9.33337 14.9267 9.20004 15.6114 8.93337 16.276C8.66671 16.9406 8.2556 17.5448 7.70004 18.0885L3.46671 14.252V22.7708Z" fill="white"/>
</svg>
